<?xml version="1.0" encoding="UTF-8"?>
<!DOCTYPE svg PUBLIC "-//W3C//DTD SVG 1.1//EN" "http://www.w3.org/Graphics/SVG/1.1/DTD/svg11.dtd">
<svg xmlns="http://www.w3.org/2000/svg" version="1.1" width="158px" height="157px" style="shape-rendering:geometricPrecision; text-rendering:geometricPrecision; image-rendering:optimizeQuality; fill-rule:evenodd; clip-rule:evenodd" xmlns:xlink="http://www.w3.org/1999/xlink">
<g><path style="opacity:0.996" fill="#260a0d" d="M 77.5,-0.5 C 78.5,-0.5 79.5,-0.5 80.5,-0.5C 85.1302,4.63128 89.9635,9.63128 95,14.5C 95.6667,15.5 95.6667,16.5 95,17.5C 81.577,30.7553 68.4103,44.0886 55.5,57.5C 44.2476,56.5227 32.9143,56.1894 21.5,56.5C 21.0618,56.5654 20.7284,56.3988 20.5,56C 39.9623,37.6083 58.9623,18.7749 77.5,-0.5 Z"/></g>
<g><path style="opacity:0.984" fill="#6b0e0e" d="M 100.5,21.5 C 105.737,26.0704 110.737,31.0704 115.5,36.5C 105.345,45.8221 95.6782,55.6554 86.5,66C 83.8723,67.6255 81.539,69.6255 79.5,72C 78.5,72.6667 77.5,72.6667 76.5,72C 71.9847,67.6518 67.6513,63.1518 63.5,58.5C 76.1877,46.479 88.521,34.1457 100.5,21.5 Z"/></g>
<g><path style="opacity:0.989" fill="#6b0e0e" d="M 77.5,114.5 C 77.1887,102.753 77.522,91.0861 78.5,79.5C 91.6318,66.8686 104.632,54.0353 117.5,41C 118.833,40.3333 120.167,40.3333 121.5,41C 126.18,46.3449 130.847,51.6782 135.5,57C 116.976,77.0241 97.6427,96.1908 77.5,114.5 Z"/></g>
<g><path style="opacity:1" fill="#4a0f0c" d="M 21.5,56.5 C 32.9143,56.1894 44.2476,56.5227 55.5,57.5C 63.1667,64.8333 70.8333,72.1667 78.5,79.5C 77.522,91.0861 77.1887,102.753 77.5,114.5C 59.2289,95.7283 40.7289,77.0617 22,58.5C 21.5357,57.9056 21.369,57.2389 21.5,56.5 Z"/></g>
<g><path style="opacity:0.997" fill="#260a0d" d="M 77.5,120.5 C 77.5,132.167 77.5,143.833 77.5,155.5C 51.1396,129.806 25.1396,103.806 -0.5,77.5C -0.5,77.1667 -0.5,76.8333 -0.5,76.5C 4.96467,71.5364 10.298,66.3697 15.5,61C 16.5,60.3333 17.5,60.3333 18.5,61C 38.3683,80.7014 58.035,100.535 77.5,120.5 Z"/></g>
<g><path style="opacity:1" fill="#4b0f0c" d="M 77.5,155.5 C 77.5,143.833 77.5,132.167 77.5,120.5C 97.6603,100.507 117.994,80.6732 138.5,61C 139.5,60.3333 140.5,60.3333 141.5,61C 147.257,66.0847 152.257,71.7514 156.5,78C 130.669,104.331 104.336,130.164 77.5,155.5 Z"/></g>
</svg>
