<?xml version="1.0" standalone="no"?>
<!DOCTYPE svg PUBLIC "-//W3C//DTD SVG 20010904//EN"
 "http://www.w3.org/TR/2001/REC-SVG-20010904/DTD/svg10.dtd">
<svg version="1.0" xmlns="http://www.w3.org/2000/svg"
 width="158.000000pt" height="157.000000pt" viewBox="0 0 158.000000 157.000000"
 preserveAspectRatio="xMidYMid meet">

<g transform="translate(0.000000,157.000000) scale(0.100000,-0.100000)"
fill="#000000" stroke="none">
<path d="M505 1286 l-290 -283 280 -286 c154 -158 284 -287 289 -287 5 0 136
127 292 283 l284 282 -80 85 -80 84 -205 -204 -205 -205 -120 120 -120 120
205 205 205 205 -82 82 -83 82 -290 -283z"/>
<path d="M832 1158 l-182 -182 68 -69 69 -69 182 181 182 181 -62 70 c-35 39
-66 70 -69 70 -3 0 -87 -82 -188 -182z"/>
<path d="M92 877 l-83 -84 385 -389 385 -389 153 150 c84 83 262 257 395 387
l242 237 -82 86 -82 86 -310 -305 -310 -304 -305 304 -305 304 -83 -83z"/>
</g>
</svg>
